<?xml version="1.0" standalone="no"?>
<!DOCTYPE svg PUBLIC "-//W3C//DTD SVG 20010904//EN"
 "http://www.w3.org/TR/2001/REC-SVG-20010904/DTD/svg10.dtd">
<svg version="1.0" xmlns="http://www.w3.org/2000/svg"
 width="512.000000pt" height="512.000000pt" viewBox="0 0 512.000000 512.000000"
 preserveAspectRatio="xMidYMid meet">
<metadata>
Created by potrace 1.16, written by Peter Selinger 2001-2019
</metadata>
<g transform="translate(0.000000,512.000000) scale(0.100000,-0.100000)"
fill="#000000" stroke="none">
<path d="M656 5105 c-54 -19 -106 -63 -141 -120 l-30 -48 0 -2377 0 -2377 30
-48 c35 -57 100 -110 153 -125 25 -7 669 -10 1971 -10 l1933 0 34 34 34 34 -2
204 -3 203 -35 0 -35 0 -5 -183 c-5 -168 -7 -185 -25 -198 -17 -12 -283 -14
-1920 -12 l-1900 3 -47 28 c-132 77 -132 257 0 334 l47 28 1933 5 1934 5 29
33 29 32 0 2251 0 2251 -34 34 -34 34 -1939 0 c-1622 -1 -1944 -3 -1977 -15z
m3884 -85 c20 -20 20 -33 20 -2218 0 -1883 -2 -2201 -14 -2218 -14 -19 -48
-19 -1949 -24 l-1934 -5 -52 -32 -51 -32 2 2197 3 2197 27 47 c30 51 82 88
137 99 20 4 881 7 1914 8 1864 1 1877 1 1897 -19z"/>
<path d="M885 4868 c-3 -7 -4 -942 -3 -2078 l3 -2065 35 0 35 0 0 2075 0 2075
-33 3 c-20 2 -34 -2 -37 -10z"/>
<path d="M1364 4627 c-2 -7 -3 -96 -2 -197 l3 -185 1395 0 1395 0 0 195 0 195
-1393 3 c-1127 2 -1394 0 -1398 -11z m2716 -187 l0 -120 -1320 0 -1320 0 0
120 0 120 1320 0 1320 0 0 -120z"/>
<path d="M1764 4466 c-3 -8 -4 -25 -2 -38 l3 -23 995 0 995 0 0 35 0 35 -993
3 c-854 2 -993 0 -998 -12z"/>
<path d="M2620 3834 c-120 -23 -237 -83 -311 -161 -86 -89 -153 -216 -147
-276 3 -28 7 -32 35 -35 28 -3 35 1 44 25 44 107 78 163 133 219 102 102 217
144 389 144 172 0 293 -47 392 -151 50 -52 77 -98 124 -212 9 -24 16 -28 44
-25 28 3 32 7 35 35 9 92 -123 281 -248 358 -99 60 -168 77 -325 80 -77 2
-151 1 -165 -1z"/>
<path d="M1955 3581 c-207 -61 -366 -224 -419 -428 -9 -34 -16 -102 -16 -153
0 -109 18 -188 67 -284 68 -135 224 -261 367 -297 l46 -11 1 -322 c0 -176 1
-357 2 -401 l2 -80 755 0 755 0 2 80 c1 44 2 225 2 401 l1 322 46 11 c143 36
299 162 367 297 49 96 67 175 67 284 0 172 -56 308 -174 426 -112 112 -266
178 -399 172 -62 -3 -62 -3 -65 -36 -3 -27 1 -34 23 -42 14 -6 43 -10 64 -10
177 0 387 -174 445 -370 21 -70 21 -210 0 -280 -58 -196 -268 -370 -445 -370
-21 0 -50 -4 -64 -10 -22 -8 -26 -15 -23 -42 3 -30 6 -33 41 -36 l37 -3 0
-280 0 -279 -680 0 -680 0 0 279 0 280 38 3 c34 3 37 6 40 36 3 27 -1 34 -23
42 -14 6 -43 10 -64 10 -177 0 -387 174 -445 370 -21 70 -21 210 0 280 58 196
268 370 445 370 21 0 50 4 64 10 22 8 26 15 23 42 l-3 33 -70 2 c-43 1 -93 -5
-130 -16z m1487 -1861 c-4 -39 -5 -40 -42 -40 -29 0 -39 4 -43 20 -4 15 -14
20 -37 20 -23 0 -33 -5 -37 -20 -4 -16 -14 -20 -43 -20 -29 0 -39 4 -43 20 -4
15 -14 20 -37 20 -23 0 -33 -5 -37 -20 -4 -16 -14 -20 -43 -20 -29 0 -39 4
-43 20 -4 15 -14 20 -37 20 -23 0 -33 -5 -37 -20 -4 -16 -14 -20 -43 -20 -29
0 -39 4 -43 20 -4 15 -14 20 -37 20 -23 0 -33 -5 -37 -20 -4 -16 -14 -20 -43
-20 -29 0 -39 4 -43 20 -4 15 -14 20 -37 20 -23 0 -33 -5 -37 -20 -4 -16 -14
-20 -43 -20 -29 0 -39 4 -43 20 -4 15 -14 20 -37 20 -23 0 -33 -5 -37 -20 -4
-16 -14 -20 -43 -20 -29 0 -39 4 -43 20 -4 15 -14 20 -37 20 -23 0 -33 -5 -37
-20 -4 -16 -14 -20 -43 -20 -29 0 -39 4 -43 20 -4 15 -14 20 -37 20 -23 0 -33
-5 -37 -20 -4 -16 -14 -20 -43 -20 -37 0 -38 1 -42 40 l-4 40 686 0 686 0 -4
-40z"/>
<path d="M1604 1186 c-3 -8 -4 -25 -2 -38 l3 -23 1155 0 1155 0 0 35 0 35
-1153 3 c-992 2 -1153 0 -1158 -12z"/>
<path d="M2084 1026 c-3 -8 -4 -25 -2 -38 l3 -23 675 0 675 0 0 35 0 35 -673
3 c-577 2 -673 0 -678 -12z"/>
<path d="M674 366 c-30 -30 -34 -40 -34 -86 0 -46 4 -56 34 -86 l34 -34 1884
2 1883 3 0 35 0 35 -1860 5 c-1023 3 -1866 9 -1872 13 -7 5 -13 17 -13 27 0
10 6 22 13 27 6 4 849 10 1872 13 l1860 5 0 35 0 35 -1883 3 -1884 2 -34 -34z"/>
</g>
</svg>
